<svg width="48" height="48" viewBox="0 0 48 48" fill="none" xmlns="http://www.w3.org/2000/svg">
<rect width="48" height="48" rx="16" fill="url(#paint0_linear_78_6)"/>
<path fill-rule="evenodd" clip-rule="evenodd" d="M18.823 11.6549C14.8642 11.6549 11.6549 14.8642 11.6549 18.823V21.8708C11.6549 22.5335 11.1176 23.0708 10.4549 23.0708H10.2C9.53726 23.0708 9 22.5335 9 21.8708V18.823C9 13.3979 13.3979 9 18.823 9H27.1805C27.8433 9 28.3805 9.53726 28.3805 10.2V10.4549C28.3805 11.1176 27.8433 11.6549 27.1805 11.6549H18.823Z" fill="white"/>
<path fill-rule="evenodd" clip-rule="evenodd" d="M29.177 36.3451C33.1358 36.3451 36.3451 33.1358 36.3451 29.177V27.7221C36.3451 27.0594 36.8824 26.5221 37.5451 26.5221H37.8C38.4627 26.5221 39 27.0594 39 27.7221V29.177C39 34.6021 34.6021 39 29.177 39L20.8195 39C20.1567 39 19.6195 38.4627 19.6195 37.8V37.5451C19.6195 36.8824 20.1567 36.3451 20.8195 36.3451H29.177Z" fill="white"/>
<path d="M23.3502 16.4121C23.0601 15.3789 21.5954 15.3789 21.3053 16.4121L20.3939 19.6585C20.2938 20.0151 20.0151 20.2938 19.6585 20.3939L16.4121 21.3053C15.3789 21.5954 15.3789 23.0601 16.4121 23.3502L19.6585 24.2616C20.0151 24.3617 20.2938 24.6404 20.3939 24.997L21.3053 28.2435C21.5954 29.2767 23.0601 29.2767 23.3502 28.2435L24.2616 24.997C24.3617 24.6404 24.6404 24.3617 24.997 24.2616L28.2434 23.3502C29.2767 23.0601 29.2767 21.5954 28.2434 21.3053L24.997 20.3939C24.6404 20.2938 24.3617 20.0151 24.2616 19.6585L23.3502 16.4121Z" fill="white"/>
<path d="M30.2726 27.8655C30.1276 27.3489 29.3952 27.3489 29.2502 27.8655L29.0273 28.6596C28.9772 28.8379 28.8379 28.9772 28.6596 29.0273L27.8655 29.2502C27.3489 29.3952 27.3489 30.1276 27.8655 30.2726L28.6596 30.4956C28.8379 30.5456 28.9772 30.6849 29.0273 30.8632L29.2502 31.6573C29.3952 32.1739 30.1276 32.1739 30.2726 31.6573L30.4955 30.8632C30.5456 30.6849 30.6849 30.5456 30.8632 30.4956L31.6573 30.2726C32.1739 30.1276 32.1739 29.3952 31.6573 29.2502L30.8632 29.0273C30.6849 28.9772 30.5456 28.8379 30.4955 28.6596L30.2726 27.8655Z" fill="white"/>
<defs>
<linearGradient id="paint0_linear_78_6" x1="0" y1="0" x2="48" y2="48" gradientUnits="userSpaceOnUse">
<stop stop-color="#FFA1FB"/>
<stop offset="0.5" stop-color="#BEBCFF"/>
<stop offset="1" stop-color="#7AFFFF"/>
</linearGradient>
</defs>
</svg>
